G04 #@! TF.GenerationSoftware,KiCad,Pcbnew,7.0.7*
G04 #@! TF.CreationDate,2023-09-14T21:09:40+02:00*
G04 #@! TF.ProjectId,Pi1541ZeroPCB2,50693135-3431-45a6-9572-6f504342322e,rev?*
G04 #@! TF.SameCoordinates,Original*
G04 #@! TF.FileFunction,Soldermask,Bot*
G04 #@! TF.FilePolarity,Negative*
%FSLAX46Y46*%
G04 Gerber Fmt 4.6, Leading zero omitted, Abs format (unit mm)*
G04 Created by KiCad (PCBNEW 7.0.7) date 2023-09-14 21:09:40*
%MOMM*%
%LPD*%
G01*
G04 APERTURE LIST*
%ADD10C,1.600000*%
%ADD11O,1.600000X1.600000*%
%ADD12C,2.700000*%
%ADD13R,1.700000X1.700000*%
%ADD14R,1.600000X1.600000*%
%ADD15O,1.700000X1.700000*%
%ADD16R,1.800000X1.800000*%
%ADD17C,1.800000*%
%ADD18C,2.100000*%
%ADD19C,1.750000*%
%ADD20C,2.500000*%
%ADD21C,1.700000*%
%ADD22C,2.000000*%
G04 APERTURE END LIST*
D10*
X121931725Y-88813509D03*
D11*
X129551725Y-88813509D03*
D10*
X165898163Y-71683844D03*
D11*
X173518163Y-71683844D03*
D12*
X161500000Y-73500000D03*
D10*
X148209999Y-78557420D03*
D11*
X155829999Y-78557420D03*
D13*
X176682871Y-72952633D03*
D14*
X129583916Y-78344987D03*
D11*
X127043916Y-78344987D03*
X124503916Y-78344987D03*
X121963916Y-78344987D03*
X119423916Y-78344987D03*
X116883916Y-78344987D03*
X114343916Y-78344987D03*
X114343916Y-85964987D03*
X116883916Y-85964987D03*
X119423916Y-85964987D03*
X121963916Y-85964987D03*
X124503916Y-85964987D03*
X127043916Y-85964987D03*
X129583916Y-85964987D03*
D13*
X148928628Y-90202200D03*
D15*
X151468628Y-90202200D03*
X154008628Y-90202200D03*
X156548628Y-90202200D03*
D16*
X180011021Y-73388780D03*
D17*
X182551021Y-73388780D03*
D18*
X134275790Y-94453487D03*
X127265790Y-94453487D03*
D19*
X133025790Y-96943487D03*
X128525790Y-96943487D03*
D18*
X83426789Y-89677170D03*
X83126789Y-87177170D03*
X83126789Y-82177170D03*
X83426789Y-79677170D03*
D20*
X93126789Y-92177170D03*
X95626789Y-89677170D03*
X93126789Y-84677170D03*
X95626789Y-79677170D03*
X93126789Y-77177170D03*
X98126789Y-84677170D03*
D18*
X124553633Y-94453487D03*
X117543633Y-94453487D03*
D19*
X123303633Y-96943487D03*
X118803633Y-96943487D03*
D18*
X114847456Y-94453487D03*
X107837456Y-94453487D03*
D19*
X113597456Y-96943487D03*
X109097456Y-96943487D03*
D18*
X181603593Y-80807085D03*
X181903593Y-83307085D03*
X181903593Y-88307085D03*
X181603593Y-90807085D03*
D20*
X171903593Y-78307085D03*
X169403593Y-80807085D03*
X171903593Y-85807085D03*
X169403593Y-90807085D03*
X171903593Y-93307085D03*
X166903593Y-85807085D03*
D12*
X103500000Y-96500000D03*
X103500000Y-73500000D03*
D18*
X143950308Y-94453487D03*
X136940308Y-94453487D03*
D19*
X142700308Y-96943487D03*
X138200308Y-96943487D03*
D10*
X119001414Y-88718982D03*
X114001414Y-88718982D03*
D21*
X135278937Y-78265688D03*
X135278937Y-80805688D03*
X135278937Y-83345688D03*
X135278937Y-85885688D03*
X135278937Y-88425688D03*
X135278937Y-90965688D03*
X145438937Y-90965688D03*
X145438937Y-88425688D03*
X145438937Y-85885688D03*
X145438937Y-83345688D03*
X145438937Y-80805688D03*
X145438937Y-78265688D03*
X111345072Y-90960845D03*
X111345072Y-88420845D03*
X111345072Y-85880845D03*
X111345072Y-83340845D03*
X111345072Y-80800845D03*
X111345072Y-78260845D03*
X101185072Y-78260845D03*
X101185072Y-80800845D03*
X101185072Y-83340845D03*
X101185072Y-85880845D03*
X101185072Y-88420845D03*
X101185072Y-90960845D03*
D12*
X161500000Y-96500000D03*
D13*
X167278634Y-97995524D03*
D15*
X169818634Y-97995524D03*
X172358634Y-97995524D03*
X174898634Y-97995524D03*
X177438634Y-97995524D03*
X179978634Y-97995524D03*
D10*
X148209999Y-81724046D03*
D11*
X155829999Y-81724046D03*
D10*
X155924525Y-84843410D03*
D11*
X148304525Y-84843410D03*
D18*
X153624825Y-94453487D03*
X146614825Y-94453487D03*
D19*
X152374825Y-96943487D03*
X147874825Y-96943487D03*
D10*
X93621139Y-97179074D03*
D11*
X86001139Y-97179074D03*
D22*
X163533245Y-78557420D03*
X163533245Y-85057420D03*
X159033245Y-78557420D03*
X159033245Y-85057420D03*
D13*
X108370000Y-74770000D03*
D15*
X108370000Y-72230000D03*
X110910000Y-74770000D03*
X110910000Y-72230000D03*
X113450000Y-74770000D03*
X113450000Y-72230000D03*
X115990000Y-74770000D03*
X115990000Y-72230000D03*
X118530000Y-74770000D03*
X118530000Y-72230000D03*
X121070000Y-74770000D03*
X121070000Y-72230000D03*
X123610000Y-74770000D03*
X123610000Y-72230000D03*
X126150000Y-74770000D03*
X126150000Y-72230000D03*
X128690000Y-74770000D03*
X128690000Y-72230000D03*
X131230000Y-74770000D03*
X131230000Y-72230000D03*
X133770000Y-74770000D03*
X133770000Y-72230000D03*
X136310000Y-74770000D03*
X136310000Y-72230000D03*
X138850000Y-74770000D03*
X138850000Y-72230000D03*
X141390000Y-74770000D03*
X141390000Y-72230000D03*
X143930000Y-74770000D03*
X143930000Y-72230000D03*
X146470000Y-74770000D03*
X146470000Y-72230000D03*
X149010000Y-74770000D03*
X149010000Y-72230000D03*
X151550000Y-74770000D03*
X151550000Y-72230000D03*
X154090000Y-74770000D03*
X154090000Y-72230000D03*
X156630000Y-74770000D03*
X156630000Y-72230000D03*
M02*
