M48
INCH,TZ
T1C0.0236
T2C0.0315
T3C0.0354
T4C0.0390
T5C0.0394
T6C0.0433
T7C0.0472
T8C0.0512
%
G90
G05
T1
X44789Y-35878
X46687Y-32039
X49720Y-34671
X50158Y-28872
X51097Y-33012
X52158Y-33065
X52636Y-30644
T2
X33859Y-38259
X36859Y-38259
X44882Y-34929
X45017Y-30844
X45017Y-33844
X46017Y-30844
X46017Y-33844
X46851Y-34929
X47017Y-30844
X47017Y-33844
X48005Y-34966
X48017Y-30844
X48017Y-33844
X49017Y-30844
X49017Y-33844
X50017Y-30844
X50017Y-33844
X51005Y-34966
X51017Y-30844
X51017Y-33844
X58350Y-30928
X58350Y-32175
X58388Y-33403
X61350Y-30928
X61350Y-32175
X61388Y-33403
X65314Y-28222
X68314Y-28222
T3
X70870Y-28893
X71870Y-28893
T4
X42952Y-38167
X44723Y-38167
X46773Y-38167
X48545Y-38167
X50601Y-38167
X52372Y-38167
X54410Y-38167
X56181Y-38167
X58218Y-38167
X59990Y-38167
T5
X39837Y-30811
X39837Y-31811
X39837Y-32811
X39837Y-33811
X39837Y-34811
X39837Y-35811
X42665Y-28437
X42665Y-29437
X43665Y-28437
X43665Y-29437
X43837Y-30811
X43837Y-31811
X43837Y-32811
X43837Y-33811
X43837Y-34811
X43837Y-35811
X44665Y-28437
X44665Y-29437
X45665Y-28437
X45665Y-29437
X46665Y-28437
X46665Y-29437
X47665Y-28437
X47665Y-29437
X48665Y-28437
X48665Y-29437
X49665Y-28437
X49665Y-29437
X50665Y-28437
X50665Y-29437
X51665Y-28437
X51665Y-29437
X52665Y-28437
X52665Y-29437
X53259Y-30813
X53259Y-31813
X53259Y-32813
X53259Y-33813
X53259Y-34813
X53259Y-35813
X53665Y-28437
X53665Y-29437
X54665Y-28437
X54665Y-29437
X55665Y-28437
X55665Y-29437
X56665Y-28437
X56665Y-29437
X57259Y-30813
X57259Y-31813
X57259Y-32813
X57259Y-33813
X57259Y-34813
X57259Y-35813
X57665Y-28437
X57665Y-29437
X58633Y-35513
X58665Y-28437
X58665Y-29437
X59633Y-35513
X59665Y-28437
X59665Y-29437
X60633Y-35513
X60665Y-28437
X60665Y-29437
X61633Y-35513
X61665Y-28437
X61665Y-29437
X65858Y-38581
X66858Y-38581
X67858Y-38581
X68858Y-38581
X69560Y-28722
X69858Y-38581
X70858Y-38581
T6
X62612Y-30928
X62612Y-33487
X64383Y-30928
X64383Y-33487
T7
X32727Y-32353
X32727Y-34322
X32845Y-31369
X32845Y-35306
X71497Y-31814
X71497Y-35751
X71616Y-32798
X71616Y-34767
T8
X36664Y-30385
X36664Y-33337
X36664Y-36290
X37648Y-31369
X37648Y-35306
X38633Y-33337
X42456Y-37186
X45216Y-37186
X46277Y-37186
X49037Y-37186
X50105Y-37186
X52864Y-37186
X53914Y-37186
X56673Y-37186
X57722Y-37186
X60482Y-37186
X65710Y-33782
X66694Y-31814
X66694Y-35751
X67679Y-30830
X67679Y-33782
X67679Y-36735
T0
M30
