G04 #@! TF.GenerationSoftware,KiCad,Pcbnew,7.0.7*
G04 #@! TF.CreationDate,2023-09-14T21:09:40+02:00*
G04 #@! TF.ProjectId,Pi1541ZeroPCB2,50693135-3431-45a6-9572-6f504342322e,rev?*
G04 #@! TF.SameCoordinates,Original*
G04 #@! TF.FileFunction,Legend,Top*
G04 #@! TF.FilePolarity,Positive*
%FSLAX46Y46*%
G04 Gerber Fmt 4.6, Leading zero omitted, Abs format (unit mm)*
G04 Created by KiCad (PCBNEW 7.0.7) date 2023-09-14 21:09:40*
%MOMM*%
%LPD*%
G01*
G04 APERTURE LIST*
%ADD10C,0.150000*%
%ADD11C,0.110000*%
%ADD12C,0.120000*%
G04 APERTURE END LIST*
D10*
X83899989Y-72129015D02*
X83899989Y-71129015D01*
X83899989Y-71129015D02*
X84280941Y-71129015D01*
X84280941Y-71129015D02*
X84376179Y-71176634D01*
X84376179Y-71176634D02*
X84423798Y-71224253D01*
X84423798Y-71224253D02*
X84471417Y-71319491D01*
X84471417Y-71319491D02*
X84471417Y-71462348D01*
X84471417Y-71462348D02*
X84423798Y-71557586D01*
X84423798Y-71557586D02*
X84376179Y-71605205D01*
X84376179Y-71605205D02*
X84280941Y-71652824D01*
X84280941Y-71652824D02*
X83899989Y-71652824D01*
X84899989Y-72129015D02*
X84899989Y-71462348D01*
X84899989Y-71129015D02*
X84852370Y-71176634D01*
X84852370Y-71176634D02*
X84899989Y-71224253D01*
X84899989Y-71224253D02*
X84947608Y-71176634D01*
X84947608Y-71176634D02*
X84899989Y-71129015D01*
X84899989Y-71129015D02*
X84899989Y-71224253D01*
X85899988Y-72129015D02*
X85328560Y-72129015D01*
X85614274Y-72129015D02*
X85614274Y-71129015D01*
X85614274Y-71129015D02*
X85519036Y-71271872D01*
X85519036Y-71271872D02*
X85423798Y-71367110D01*
X85423798Y-71367110D02*
X85328560Y-71414729D01*
X86804750Y-71129015D02*
X86328560Y-71129015D01*
X86328560Y-71129015D02*
X86280941Y-71605205D01*
X86280941Y-71605205D02*
X86328560Y-71557586D01*
X86328560Y-71557586D02*
X86423798Y-71509967D01*
X86423798Y-71509967D02*
X86661893Y-71509967D01*
X86661893Y-71509967D02*
X86757131Y-71557586D01*
X86757131Y-71557586D02*
X86804750Y-71605205D01*
X86804750Y-71605205D02*
X86852369Y-71700443D01*
X86852369Y-71700443D02*
X86852369Y-71938538D01*
X86852369Y-71938538D02*
X86804750Y-72033776D01*
X86804750Y-72033776D02*
X86757131Y-72081396D01*
X86757131Y-72081396D02*
X86661893Y-72129015D01*
X86661893Y-72129015D02*
X86423798Y-72129015D01*
X86423798Y-72129015D02*
X86328560Y-72081396D01*
X86328560Y-72081396D02*
X86280941Y-72033776D01*
X87709512Y-71462348D02*
X87709512Y-72129015D01*
X87471417Y-71081396D02*
X87233322Y-71795681D01*
X87233322Y-71795681D02*
X87852369Y-71795681D01*
X88757131Y-72129015D02*
X88185703Y-72129015D01*
X88471417Y-72129015D02*
X88471417Y-71129015D01*
X88471417Y-71129015D02*
X88376179Y-71271872D01*
X88376179Y-71271872D02*
X88280941Y-71367110D01*
X88280941Y-71367110D02*
X88185703Y-71414729D01*
X90138084Y-71129015D02*
X90328560Y-71129015D01*
X90328560Y-71129015D02*
X90423798Y-71176634D01*
X90423798Y-71176634D02*
X90519036Y-71271872D01*
X90519036Y-71271872D02*
X90566655Y-71462348D01*
X90566655Y-71462348D02*
X90566655Y-71795681D01*
X90566655Y-71795681D02*
X90519036Y-71986157D01*
X90519036Y-71986157D02*
X90423798Y-72081396D01*
X90423798Y-72081396D02*
X90328560Y-72129015D01*
X90328560Y-72129015D02*
X90138084Y-72129015D01*
X90138084Y-72129015D02*
X90042846Y-72081396D01*
X90042846Y-72081396D02*
X89947608Y-71986157D01*
X89947608Y-71986157D02*
X89899989Y-71795681D01*
X89899989Y-71795681D02*
X89899989Y-71462348D01*
X89899989Y-71462348D02*
X89947608Y-71271872D01*
X89947608Y-71271872D02*
X90042846Y-71176634D01*
X90042846Y-71176634D02*
X90138084Y-71129015D01*
X90995227Y-71462348D02*
X90995227Y-72462348D01*
X90995227Y-71509967D02*
X91090465Y-71462348D01*
X91090465Y-71462348D02*
X91280941Y-71462348D01*
X91280941Y-71462348D02*
X91376179Y-71509967D01*
X91376179Y-71509967D02*
X91423798Y-71557586D01*
X91423798Y-71557586D02*
X91471417Y-71652824D01*
X91471417Y-71652824D02*
X91471417Y-71938538D01*
X91471417Y-71938538D02*
X91423798Y-72033776D01*
X91423798Y-72033776D02*
X91376179Y-72081396D01*
X91376179Y-72081396D02*
X91280941Y-72129015D01*
X91280941Y-72129015D02*
X91090465Y-72129015D01*
X91090465Y-72129015D02*
X90995227Y-72081396D01*
X91757132Y-71462348D02*
X92138084Y-71462348D01*
X91899989Y-71129015D02*
X91899989Y-71986157D01*
X91899989Y-71986157D02*
X91947608Y-72081396D01*
X91947608Y-72081396D02*
X92042846Y-72129015D01*
X92042846Y-72129015D02*
X92138084Y-72129015D01*
X92471418Y-72129015D02*
X92471418Y-71462348D01*
X92471418Y-71129015D02*
X92423799Y-71176634D01*
X92423799Y-71176634D02*
X92471418Y-71224253D01*
X92471418Y-71224253D02*
X92519037Y-71176634D01*
X92519037Y-71176634D02*
X92471418Y-71129015D01*
X92471418Y-71129015D02*
X92471418Y-71224253D01*
X93090465Y-72129015D02*
X92995227Y-72081396D01*
X92995227Y-72081396D02*
X92947608Y-72033776D01*
X92947608Y-72033776D02*
X92899989Y-71938538D01*
X92899989Y-71938538D02*
X92899989Y-71652824D01*
X92899989Y-71652824D02*
X92947608Y-71557586D01*
X92947608Y-71557586D02*
X92995227Y-71509967D01*
X92995227Y-71509967D02*
X93090465Y-71462348D01*
X93090465Y-71462348D02*
X93233322Y-71462348D01*
X93233322Y-71462348D02*
X93328560Y-71509967D01*
X93328560Y-71509967D02*
X93376179Y-71557586D01*
X93376179Y-71557586D02*
X93423798Y-71652824D01*
X93423798Y-71652824D02*
X93423798Y-71938538D01*
X93423798Y-71938538D02*
X93376179Y-72033776D01*
X93376179Y-72033776D02*
X93328560Y-72081396D01*
X93328560Y-72081396D02*
X93233322Y-72129015D01*
X93233322Y-72129015D02*
X93090465Y-72129015D01*
X93852370Y-71462348D02*
X93852370Y-72129015D01*
X93852370Y-71557586D02*
X93899989Y-71509967D01*
X93899989Y-71509967D02*
X93995227Y-71462348D01*
X93995227Y-71462348D02*
X94138084Y-71462348D01*
X94138084Y-71462348D02*
X94233322Y-71509967D01*
X94233322Y-71509967D02*
X94280941Y-71605205D01*
X94280941Y-71605205D02*
X94280941Y-72129015D01*
X95852370Y-71605205D02*
X95995227Y-71652824D01*
X95995227Y-71652824D02*
X96042846Y-71700443D01*
X96042846Y-71700443D02*
X96090465Y-71795681D01*
X96090465Y-71795681D02*
X96090465Y-71938538D01*
X96090465Y-71938538D02*
X96042846Y-72033776D01*
X96042846Y-72033776D02*
X95995227Y-72081396D01*
X95995227Y-72081396D02*
X95899989Y-72129015D01*
X95899989Y-72129015D02*
X95519037Y-72129015D01*
X95519037Y-72129015D02*
X95519037Y-71129015D01*
X95519037Y-71129015D02*
X95852370Y-71129015D01*
X95852370Y-71129015D02*
X95947608Y-71176634D01*
X95947608Y-71176634D02*
X95995227Y-71224253D01*
X95995227Y-71224253D02*
X96042846Y-71319491D01*
X96042846Y-71319491D02*
X96042846Y-71414729D01*
X96042846Y-71414729D02*
X95995227Y-71509967D01*
X95995227Y-71509967D02*
X95947608Y-71557586D01*
X95947608Y-71557586D02*
X95852370Y-71605205D01*
X95852370Y-71605205D02*
X95519037Y-71605205D01*
X83899989Y-73739015D02*
X83899989Y-72739015D01*
X83899989Y-72739015D02*
X84138084Y-72739015D01*
X84138084Y-72739015D02*
X84280941Y-72786634D01*
X84280941Y-72786634D02*
X84376179Y-72881872D01*
X84376179Y-72881872D02*
X84423798Y-72977110D01*
X84423798Y-72977110D02*
X84471417Y-73167586D01*
X84471417Y-73167586D02*
X84471417Y-73310443D01*
X84471417Y-73310443D02*
X84423798Y-73500919D01*
X84423798Y-73500919D02*
X84376179Y-73596157D01*
X84376179Y-73596157D02*
X84280941Y-73691396D01*
X84280941Y-73691396D02*
X84138084Y-73739015D01*
X84138084Y-73739015D02*
X83899989Y-73739015D01*
X85328560Y-73739015D02*
X85328560Y-73215205D01*
X85328560Y-73215205D02*
X85280941Y-73119967D01*
X85280941Y-73119967D02*
X85185703Y-73072348D01*
X85185703Y-73072348D02*
X84995227Y-73072348D01*
X84995227Y-73072348D02*
X84899989Y-73119967D01*
X85328560Y-73691396D02*
X85233322Y-73739015D01*
X85233322Y-73739015D02*
X84995227Y-73739015D01*
X84995227Y-73739015D02*
X84899989Y-73691396D01*
X84899989Y-73691396D02*
X84852370Y-73596157D01*
X84852370Y-73596157D02*
X84852370Y-73500919D01*
X84852370Y-73500919D02*
X84899989Y-73405681D01*
X84899989Y-73405681D02*
X84995227Y-73358062D01*
X84995227Y-73358062D02*
X85233322Y-73358062D01*
X85233322Y-73358062D02*
X85328560Y-73310443D01*
X85661894Y-73072348D02*
X86042846Y-73072348D01*
X85804751Y-72739015D02*
X85804751Y-73596157D01*
X85804751Y-73596157D02*
X85852370Y-73691396D01*
X85852370Y-73691396D02*
X85947608Y-73739015D01*
X85947608Y-73739015D02*
X86042846Y-73739015D01*
X86804751Y-73739015D02*
X86804751Y-73215205D01*
X86804751Y-73215205D02*
X86757132Y-73119967D01*
X86757132Y-73119967D02*
X86661894Y-73072348D01*
X86661894Y-73072348D02*
X86471418Y-73072348D01*
X86471418Y-73072348D02*
X86376180Y-73119967D01*
X86804751Y-73691396D02*
X86709513Y-73739015D01*
X86709513Y-73739015D02*
X86471418Y-73739015D01*
X86471418Y-73739015D02*
X86376180Y-73691396D01*
X86376180Y-73691396D02*
X86328561Y-73596157D01*
X86328561Y-73596157D02*
X86328561Y-73500919D01*
X86328561Y-73500919D02*
X86376180Y-73405681D01*
X86376180Y-73405681D02*
X86471418Y-73358062D01*
X86471418Y-73358062D02*
X86709513Y-73358062D01*
X86709513Y-73358062D02*
X86804751Y-73310443D01*
X87233323Y-73691396D02*
X87328561Y-73739015D01*
X87328561Y-73739015D02*
X87519037Y-73739015D01*
X87519037Y-73739015D02*
X87614275Y-73691396D01*
X87614275Y-73691396D02*
X87661894Y-73596157D01*
X87661894Y-73596157D02*
X87661894Y-73548538D01*
X87661894Y-73548538D02*
X87614275Y-73453300D01*
X87614275Y-73453300D02*
X87519037Y-73405681D01*
X87519037Y-73405681D02*
X87376180Y-73405681D01*
X87376180Y-73405681D02*
X87280942Y-73358062D01*
X87280942Y-73358062D02*
X87233323Y-73262824D01*
X87233323Y-73262824D02*
X87233323Y-73215205D01*
X87233323Y-73215205D02*
X87280942Y-73119967D01*
X87280942Y-73119967D02*
X87376180Y-73072348D01*
X87376180Y-73072348D02*
X87519037Y-73072348D01*
X87519037Y-73072348D02*
X87614275Y-73119967D01*
X88471418Y-73691396D02*
X88376180Y-73739015D01*
X88376180Y-73739015D02*
X88185704Y-73739015D01*
X88185704Y-73739015D02*
X88090466Y-73691396D01*
X88090466Y-73691396D02*
X88042847Y-73596157D01*
X88042847Y-73596157D02*
X88042847Y-73215205D01*
X88042847Y-73215205D02*
X88090466Y-73119967D01*
X88090466Y-73119967D02*
X88185704Y-73072348D01*
X88185704Y-73072348D02*
X88376180Y-73072348D01*
X88376180Y-73072348D02*
X88471418Y-73119967D01*
X88471418Y-73119967D02*
X88519037Y-73215205D01*
X88519037Y-73215205D02*
X88519037Y-73310443D01*
X88519037Y-73310443D02*
X88042847Y-73405681D01*
X88804752Y-73072348D02*
X89185704Y-73072348D01*
X88947609Y-72739015D02*
X88947609Y-73596157D01*
X88947609Y-73596157D02*
X88995228Y-73691396D01*
X88995228Y-73691396D02*
X89090466Y-73739015D01*
X89090466Y-73739015D02*
X89185704Y-73739015D01*
X89376181Y-73072348D02*
X89757133Y-73072348D01*
X89519038Y-72739015D02*
X89519038Y-73596157D01*
X89519038Y-73596157D02*
X89566657Y-73691396D01*
X89566657Y-73691396D02*
X89661895Y-73739015D01*
X89661895Y-73739015D02*
X89757133Y-73739015D01*
X90471419Y-73691396D02*
X90376181Y-73739015D01*
X90376181Y-73739015D02*
X90185705Y-73739015D01*
X90185705Y-73739015D02*
X90090467Y-73691396D01*
X90090467Y-73691396D02*
X90042848Y-73596157D01*
X90042848Y-73596157D02*
X90042848Y-73215205D01*
X90042848Y-73215205D02*
X90090467Y-73119967D01*
X90090467Y-73119967D02*
X90185705Y-73072348D01*
X90185705Y-73072348D02*
X90376181Y-73072348D01*
X90376181Y-73072348D02*
X90471419Y-73119967D01*
X90471419Y-73119967D02*
X90519038Y-73215205D01*
X90519038Y-73215205D02*
X90519038Y-73310443D01*
X90519038Y-73310443D02*
X90042848Y-73405681D01*
X91661896Y-73691396D02*
X91757134Y-73739015D01*
X91757134Y-73739015D02*
X91947610Y-73739015D01*
X91947610Y-73739015D02*
X92042848Y-73691396D01*
X92042848Y-73691396D02*
X92090467Y-73596157D01*
X92090467Y-73596157D02*
X92090467Y-73548538D01*
X92090467Y-73548538D02*
X92042848Y-73453300D01*
X92042848Y-73453300D02*
X91947610Y-73405681D01*
X91947610Y-73405681D02*
X91804753Y-73405681D01*
X91804753Y-73405681D02*
X91709515Y-73358062D01*
X91709515Y-73358062D02*
X91661896Y-73262824D01*
X91661896Y-73262824D02*
X91661896Y-73215205D01*
X91661896Y-73215205D02*
X91709515Y-73119967D01*
X91709515Y-73119967D02*
X91804753Y-73072348D01*
X91804753Y-73072348D02*
X91947610Y-73072348D01*
X91947610Y-73072348D02*
X92042848Y-73119967D01*
X92947610Y-73072348D02*
X92947610Y-73739015D01*
X92519039Y-73072348D02*
X92519039Y-73596157D01*
X92519039Y-73596157D02*
X92566658Y-73691396D01*
X92566658Y-73691396D02*
X92661896Y-73739015D01*
X92661896Y-73739015D02*
X92804753Y-73739015D01*
X92804753Y-73739015D02*
X92899991Y-73691396D01*
X92899991Y-73691396D02*
X92947610Y-73643776D01*
X93423801Y-73072348D02*
X93423801Y-74072348D01*
X93423801Y-73119967D02*
X93519039Y-73072348D01*
X93519039Y-73072348D02*
X93709515Y-73072348D01*
X93709515Y-73072348D02*
X93804753Y-73119967D01*
X93804753Y-73119967D02*
X93852372Y-73167586D01*
X93852372Y-73167586D02*
X93899991Y-73262824D01*
X93899991Y-73262824D02*
X93899991Y-73548538D01*
X93899991Y-73548538D02*
X93852372Y-73643776D01*
X93852372Y-73643776D02*
X93804753Y-73691396D01*
X93804753Y-73691396D02*
X93709515Y-73739015D01*
X93709515Y-73739015D02*
X93519039Y-73739015D01*
X93519039Y-73739015D02*
X93423801Y-73691396D01*
X94328563Y-73072348D02*
X94328563Y-74072348D01*
X94328563Y-73119967D02*
X94423801Y-73072348D01*
X94423801Y-73072348D02*
X94614277Y-73072348D01*
X94614277Y-73072348D02*
X94709515Y-73119967D01*
X94709515Y-73119967D02*
X94757134Y-73167586D01*
X94757134Y-73167586D02*
X94804753Y-73262824D01*
X94804753Y-73262824D02*
X94804753Y-73548538D01*
X94804753Y-73548538D02*
X94757134Y-73643776D01*
X94757134Y-73643776D02*
X94709515Y-73691396D01*
X94709515Y-73691396D02*
X94614277Y-73739015D01*
X94614277Y-73739015D02*
X94423801Y-73739015D01*
X94423801Y-73739015D02*
X94328563Y-73691396D01*
X95376182Y-73739015D02*
X95280944Y-73691396D01*
X95280944Y-73691396D02*
X95233325Y-73643776D01*
X95233325Y-73643776D02*
X95185706Y-73548538D01*
X95185706Y-73548538D02*
X95185706Y-73262824D01*
X95185706Y-73262824D02*
X95233325Y-73167586D01*
X95233325Y-73167586D02*
X95280944Y-73119967D01*
X95280944Y-73119967D02*
X95376182Y-73072348D01*
X95376182Y-73072348D02*
X95519039Y-73072348D01*
X95519039Y-73072348D02*
X95614277Y-73119967D01*
X95614277Y-73119967D02*
X95661896Y-73167586D01*
X95661896Y-73167586D02*
X95709515Y-73262824D01*
X95709515Y-73262824D02*
X95709515Y-73548538D01*
X95709515Y-73548538D02*
X95661896Y-73643776D01*
X95661896Y-73643776D02*
X95614277Y-73691396D01*
X95614277Y-73691396D02*
X95519039Y-73739015D01*
X95519039Y-73739015D02*
X95376182Y-73739015D01*
X96138087Y-73739015D02*
X96138087Y-73072348D01*
X96138087Y-73262824D02*
X96185706Y-73167586D01*
X96185706Y-73167586D02*
X96233325Y-73119967D01*
X96233325Y-73119967D02*
X96328563Y-73072348D01*
X96328563Y-73072348D02*
X96423801Y-73072348D01*
X96614278Y-73072348D02*
X96995230Y-73072348D01*
X96757135Y-72739015D02*
X96757135Y-73596157D01*
X96757135Y-73596157D02*
X96804754Y-73691396D01*
X96804754Y-73691396D02*
X96899992Y-73739015D01*
X96899992Y-73739015D02*
X96995230Y-73739015D01*
X176349537Y-70077452D02*
X176349537Y-70791737D01*
X176349537Y-70791737D02*
X176301918Y-70934594D01*
X176301918Y-70934594D02*
X176206680Y-71029833D01*
X176206680Y-71029833D02*
X176063823Y-71077452D01*
X176063823Y-71077452D02*
X175968585Y-71077452D01*
X177254299Y-70077452D02*
X177063823Y-70077452D01*
X177063823Y-70077452D02*
X176968585Y-70125071D01*
X176968585Y-70125071D02*
X176920966Y-70172690D01*
X176920966Y-70172690D02*
X176825728Y-70315547D01*
X176825728Y-70315547D02*
X176778109Y-70506023D01*
X176778109Y-70506023D02*
X176778109Y-70886975D01*
X176778109Y-70886975D02*
X176825728Y-70982213D01*
X176825728Y-70982213D02*
X176873347Y-71029833D01*
X176873347Y-71029833D02*
X176968585Y-71077452D01*
X176968585Y-71077452D02*
X177159061Y-71077452D01*
X177159061Y-71077452D02*
X177254299Y-71029833D01*
X177254299Y-71029833D02*
X177301918Y-70982213D01*
X177301918Y-70982213D02*
X177349537Y-70886975D01*
X177349537Y-70886975D02*
X177349537Y-70648880D01*
X177349537Y-70648880D02*
X177301918Y-70553642D01*
X177301918Y-70553642D02*
X177254299Y-70506023D01*
X177254299Y-70506023D02*
X177159061Y-70458404D01*
X177159061Y-70458404D02*
X176968585Y-70458404D01*
X176968585Y-70458404D02*
X176873347Y-70506023D01*
X176873347Y-70506023D02*
X176825728Y-70553642D01*
X176825728Y-70553642D02*
X176778109Y-70648880D01*
X124293554Y-82569628D02*
X125103077Y-82569628D01*
X125103077Y-82569628D02*
X125198315Y-82522009D01*
X125198315Y-82522009D02*
X125245935Y-82474390D01*
X125245935Y-82474390D02*
X125293554Y-82379152D01*
X125293554Y-82379152D02*
X125293554Y-82188676D01*
X125293554Y-82188676D02*
X125245935Y-82093438D01*
X125245935Y-82093438D02*
X125198315Y-82045819D01*
X125198315Y-82045819D02*
X125103077Y-81998200D01*
X125103077Y-81998200D02*
X124293554Y-81998200D01*
X124293554Y-81617247D02*
X124293554Y-80998200D01*
X124293554Y-80998200D02*
X124674506Y-81331533D01*
X124674506Y-81331533D02*
X124674506Y-81188676D01*
X124674506Y-81188676D02*
X124722125Y-81093438D01*
X124722125Y-81093438D02*
X124769744Y-81045819D01*
X124769744Y-81045819D02*
X124864982Y-80998200D01*
X124864982Y-80998200D02*
X125103077Y-80998200D01*
X125103077Y-80998200D02*
X125198315Y-81045819D01*
X125198315Y-81045819D02*
X125245935Y-81093438D01*
X125245935Y-81093438D02*
X125293554Y-81188676D01*
X125293554Y-81188676D02*
X125293554Y-81474390D01*
X125293554Y-81474390D02*
X125245935Y-81569628D01*
X125245935Y-81569628D02*
X125198315Y-81617247D01*
X178806731Y-71387441D02*
X178806731Y-70387441D01*
X178806731Y-70387441D02*
X179044826Y-70387441D01*
X179044826Y-70387441D02*
X179187683Y-70435060D01*
X179187683Y-70435060D02*
X179282921Y-70530298D01*
X179282921Y-70530298D02*
X179330540Y-70625536D01*
X179330540Y-70625536D02*
X179378159Y-70816012D01*
X179378159Y-70816012D02*
X179378159Y-70958869D01*
X179378159Y-70958869D02*
X179330540Y-71149345D01*
X179330540Y-71149345D02*
X179282921Y-71244583D01*
X179282921Y-71244583D02*
X179187683Y-71339822D01*
X179187683Y-71339822D02*
X179044826Y-71387441D01*
X179044826Y-71387441D02*
X178806731Y-71387441D01*
X180330540Y-71387441D02*
X179759112Y-71387441D01*
X180044826Y-71387441D02*
X180044826Y-70387441D01*
X180044826Y-70387441D02*
X179949588Y-70530298D01*
X179949588Y-70530298D02*
X179854350Y-70625536D01*
X179854350Y-70625536D02*
X179759112Y-70673155D01*
X129442457Y-95670687D02*
X129585314Y-95718306D01*
X129585314Y-95718306D02*
X129823409Y-95718306D01*
X129823409Y-95718306D02*
X129918647Y-95670687D01*
X129918647Y-95670687D02*
X129966266Y-95623067D01*
X129966266Y-95623067D02*
X130013885Y-95527829D01*
X130013885Y-95527829D02*
X130013885Y-95432591D01*
X130013885Y-95432591D02*
X129966266Y-95337353D01*
X129966266Y-95337353D02*
X129918647Y-95289734D01*
X129918647Y-95289734D02*
X129823409Y-95242115D01*
X129823409Y-95242115D02*
X129632933Y-95194496D01*
X129632933Y-95194496D02*
X129537695Y-95146877D01*
X129537695Y-95146877D02*
X129490076Y-95099258D01*
X129490076Y-95099258D02*
X129442457Y-95004020D01*
X129442457Y-95004020D02*
X129442457Y-94908782D01*
X129442457Y-94908782D02*
X129490076Y-94813544D01*
X129490076Y-94813544D02*
X129537695Y-94765925D01*
X129537695Y-94765925D02*
X129632933Y-94718306D01*
X129632933Y-94718306D02*
X129871028Y-94718306D01*
X129871028Y-94718306D02*
X130013885Y-94765925D01*
X130347219Y-94718306D02*
X130585314Y-95718306D01*
X130585314Y-95718306D02*
X130775790Y-95004020D01*
X130775790Y-95004020D02*
X130966266Y-95718306D01*
X130966266Y-95718306D02*
X131204362Y-94718306D01*
X131537695Y-94813544D02*
X131585314Y-94765925D01*
X131585314Y-94765925D02*
X131680552Y-94718306D01*
X131680552Y-94718306D02*
X131918647Y-94718306D01*
X131918647Y-94718306D02*
X132013885Y-94765925D01*
X132013885Y-94765925D02*
X132061504Y-94813544D01*
X132061504Y-94813544D02*
X132109123Y-94908782D01*
X132109123Y-94908782D02*
X132109123Y-95004020D01*
X132109123Y-95004020D02*
X132061504Y-95146877D01*
X132061504Y-95146877D02*
X131490076Y-95718306D01*
X131490076Y-95718306D02*
X132109123Y-95718306D01*
X88081608Y-85010503D02*
X88795893Y-85010503D01*
X88795893Y-85010503D02*
X88938750Y-85058122D01*
X88938750Y-85058122D02*
X89033989Y-85153360D01*
X89033989Y-85153360D02*
X89081608Y-85296217D01*
X89081608Y-85296217D02*
X89081608Y-85391455D01*
X88081608Y-84629550D02*
X88081608Y-84010503D01*
X88081608Y-84010503D02*
X88462560Y-84343836D01*
X88462560Y-84343836D02*
X88462560Y-84200979D01*
X88462560Y-84200979D02*
X88510179Y-84105741D01*
X88510179Y-84105741D02*
X88557798Y-84058122D01*
X88557798Y-84058122D02*
X88653036Y-84010503D01*
X88653036Y-84010503D02*
X88891131Y-84010503D01*
X88891131Y-84010503D02*
X88986369Y-84058122D01*
X88986369Y-84058122D02*
X89033989Y-84105741D01*
X89033989Y-84105741D02*
X89081608Y-84200979D01*
X89081608Y-84200979D02*
X89081608Y-84486693D01*
X89081608Y-84486693D02*
X89033989Y-84581931D01*
X89033989Y-84581931D02*
X88986369Y-84629550D01*
X119720300Y-95670687D02*
X119863157Y-95718306D01*
X119863157Y-95718306D02*
X120101252Y-95718306D01*
X120101252Y-95718306D02*
X120196490Y-95670687D01*
X120196490Y-95670687D02*
X120244109Y-95623067D01*
X120244109Y-95623067D02*
X120291728Y-95527829D01*
X120291728Y-95527829D02*
X120291728Y-95432591D01*
X120291728Y-95432591D02*
X120244109Y-95337353D01*
X120244109Y-95337353D02*
X120196490Y-95289734D01*
X120196490Y-95289734D02*
X120101252Y-95242115D01*
X120101252Y-95242115D02*
X119910776Y-95194496D01*
X119910776Y-95194496D02*
X119815538Y-95146877D01*
X119815538Y-95146877D02*
X119767919Y-95099258D01*
X119767919Y-95099258D02*
X119720300Y-95004020D01*
X119720300Y-95004020D02*
X119720300Y-94908782D01*
X119720300Y-94908782D02*
X119767919Y-94813544D01*
X119767919Y-94813544D02*
X119815538Y-94765925D01*
X119815538Y-94765925D02*
X119910776Y-94718306D01*
X119910776Y-94718306D02*
X120148871Y-94718306D01*
X120148871Y-94718306D02*
X120291728Y-94765925D01*
X120625062Y-94718306D02*
X120863157Y-95718306D01*
X120863157Y-95718306D02*
X121053633Y-95004020D01*
X121053633Y-95004020D02*
X121244109Y-95718306D01*
X121244109Y-95718306D02*
X121482205Y-94718306D01*
X122339347Y-94718306D02*
X121863157Y-94718306D01*
X121863157Y-94718306D02*
X121815538Y-95194496D01*
X121815538Y-95194496D02*
X121863157Y-95146877D01*
X121863157Y-95146877D02*
X121958395Y-95099258D01*
X121958395Y-95099258D02*
X122196490Y-95099258D01*
X122196490Y-95099258D02*
X122291728Y-95146877D01*
X122291728Y-95146877D02*
X122339347Y-95194496D01*
X122339347Y-95194496D02*
X122386966Y-95289734D01*
X122386966Y-95289734D02*
X122386966Y-95527829D01*
X122386966Y-95527829D02*
X122339347Y-95623067D01*
X122339347Y-95623067D02*
X122291728Y-95670687D01*
X122291728Y-95670687D02*
X122196490Y-95718306D01*
X122196490Y-95718306D02*
X121958395Y-95718306D01*
X121958395Y-95718306D02*
X121863157Y-95670687D01*
X121863157Y-95670687D02*
X121815538Y-95623067D01*
X110014123Y-95670687D02*
X110156980Y-95718306D01*
X110156980Y-95718306D02*
X110395075Y-95718306D01*
X110395075Y-95718306D02*
X110490313Y-95670687D01*
X110490313Y-95670687D02*
X110537932Y-95623067D01*
X110537932Y-95623067D02*
X110585551Y-95527829D01*
X110585551Y-95527829D02*
X110585551Y-95432591D01*
X110585551Y-95432591D02*
X110537932Y-95337353D01*
X110537932Y-95337353D02*
X110490313Y-95289734D01*
X110490313Y-95289734D02*
X110395075Y-95242115D01*
X110395075Y-95242115D02*
X110204599Y-95194496D01*
X110204599Y-95194496D02*
X110109361Y-95146877D01*
X110109361Y-95146877D02*
X110061742Y-95099258D01*
X110061742Y-95099258D02*
X110014123Y-95004020D01*
X110014123Y-95004020D02*
X110014123Y-94908782D01*
X110014123Y-94908782D02*
X110061742Y-94813544D01*
X110061742Y-94813544D02*
X110109361Y-94765925D01*
X110109361Y-94765925D02*
X110204599Y-94718306D01*
X110204599Y-94718306D02*
X110442694Y-94718306D01*
X110442694Y-94718306D02*
X110585551Y-94765925D01*
X110918885Y-94718306D02*
X111156980Y-95718306D01*
X111156980Y-95718306D02*
X111347456Y-95004020D01*
X111347456Y-95004020D02*
X111537932Y-95718306D01*
X111537932Y-95718306D02*
X111776028Y-94718306D01*
X112585551Y-94718306D02*
X112395075Y-94718306D01*
X112395075Y-94718306D02*
X112299837Y-94765925D01*
X112299837Y-94765925D02*
X112252218Y-94813544D01*
X112252218Y-94813544D02*
X112156980Y-94956401D01*
X112156980Y-94956401D02*
X112109361Y-95146877D01*
X112109361Y-95146877D02*
X112109361Y-95527829D01*
X112109361Y-95527829D02*
X112156980Y-95623067D01*
X112156980Y-95623067D02*
X112204599Y-95670687D01*
X112204599Y-95670687D02*
X112299837Y-95718306D01*
X112299837Y-95718306D02*
X112490313Y-95718306D01*
X112490313Y-95718306D02*
X112585551Y-95670687D01*
X112585551Y-95670687D02*
X112633170Y-95623067D01*
X112633170Y-95623067D02*
X112680789Y-95527829D01*
X112680789Y-95527829D02*
X112680789Y-95289734D01*
X112680789Y-95289734D02*
X112633170Y-95194496D01*
X112633170Y-95194496D02*
X112585551Y-95146877D01*
X112585551Y-95146877D02*
X112490313Y-95099258D01*
X112490313Y-95099258D02*
X112299837Y-95099258D01*
X112299837Y-95099258D02*
X112204599Y-95146877D01*
X112204599Y-95146877D02*
X112156980Y-95194496D01*
X112156980Y-95194496D02*
X112109361Y-95289734D01*
X175858412Y-86140418D02*
X176572697Y-86140418D01*
X176572697Y-86140418D02*
X176715554Y-86188037D01*
X176715554Y-86188037D02*
X176810793Y-86283275D01*
X176810793Y-86283275D02*
X176858412Y-86426132D01*
X176858412Y-86426132D02*
X176858412Y-86521370D01*
X176191745Y-85235656D02*
X176858412Y-85235656D01*
X175810793Y-85473751D02*
X176525078Y-85711846D01*
X176525078Y-85711846D02*
X176525078Y-85092799D01*
X139116975Y-95670687D02*
X139259832Y-95718306D01*
X139259832Y-95718306D02*
X139497927Y-95718306D01*
X139497927Y-95718306D02*
X139593165Y-95670687D01*
X139593165Y-95670687D02*
X139640784Y-95623067D01*
X139640784Y-95623067D02*
X139688403Y-95527829D01*
X139688403Y-95527829D02*
X139688403Y-95432591D01*
X139688403Y-95432591D02*
X139640784Y-95337353D01*
X139640784Y-95337353D02*
X139593165Y-95289734D01*
X139593165Y-95289734D02*
X139497927Y-95242115D01*
X139497927Y-95242115D02*
X139307451Y-95194496D01*
X139307451Y-95194496D02*
X139212213Y-95146877D01*
X139212213Y-95146877D02*
X139164594Y-95099258D01*
X139164594Y-95099258D02*
X139116975Y-95004020D01*
X139116975Y-95004020D02*
X139116975Y-94908782D01*
X139116975Y-94908782D02*
X139164594Y-94813544D01*
X139164594Y-94813544D02*
X139212213Y-94765925D01*
X139212213Y-94765925D02*
X139307451Y-94718306D01*
X139307451Y-94718306D02*
X139545546Y-94718306D01*
X139545546Y-94718306D02*
X139688403Y-94765925D01*
X140021737Y-94718306D02*
X140259832Y-95718306D01*
X140259832Y-95718306D02*
X140450308Y-95004020D01*
X140450308Y-95004020D02*
X140640784Y-95718306D01*
X140640784Y-95718306D02*
X140878880Y-94718306D01*
X141688403Y-95051639D02*
X141688403Y-95718306D01*
X141450308Y-94670687D02*
X141212213Y-95384972D01*
X141212213Y-95384972D02*
X141831260Y-95384972D01*
X139800977Y-89540480D02*
X139800977Y-88969052D01*
X140800977Y-89254766D02*
X139800977Y-89254766D01*
X140800977Y-88635718D02*
X139800977Y-88635718D01*
X139800977Y-88635718D02*
X139800977Y-88254766D01*
X139800977Y-88254766D02*
X139848596Y-88159528D01*
X139848596Y-88159528D02*
X139896215Y-88111909D01*
X139896215Y-88111909D02*
X139991453Y-88064290D01*
X139991453Y-88064290D02*
X140134310Y-88064290D01*
X140134310Y-88064290D02*
X140229548Y-88111909D01*
X140229548Y-88111909D02*
X140277167Y-88159528D01*
X140277167Y-88159528D02*
X140324786Y-88254766D01*
X140324786Y-88254766D02*
X140324786Y-88635718D01*
X140896215Y-87873814D02*
X140896215Y-87111909D01*
X140800977Y-86397623D02*
X140800977Y-86873813D01*
X140800977Y-86873813D02*
X139800977Y-86873813D01*
X140753358Y-85683337D02*
X140800977Y-85778575D01*
X140800977Y-85778575D02*
X140800977Y-85969051D01*
X140800977Y-85969051D02*
X140753358Y-86064289D01*
X140753358Y-86064289D02*
X140658119Y-86111908D01*
X140658119Y-86111908D02*
X140277167Y-86111908D01*
X140277167Y-86111908D02*
X140181929Y-86064289D01*
X140181929Y-86064289D02*
X140134310Y-85969051D01*
X140134310Y-85969051D02*
X140134310Y-85778575D01*
X140134310Y-85778575D02*
X140181929Y-85683337D01*
X140181929Y-85683337D02*
X140277167Y-85635718D01*
X140277167Y-85635718D02*
X140372405Y-85635718D01*
X140372405Y-85635718D02*
X140467643Y-86111908D01*
X140134310Y-85302384D02*
X140800977Y-85064289D01*
X140800977Y-85064289D02*
X140134310Y-84826194D01*
X140753358Y-84064289D02*
X140800977Y-84159527D01*
X140800977Y-84159527D02*
X140800977Y-84350003D01*
X140800977Y-84350003D02*
X140753358Y-84445241D01*
X140753358Y-84445241D02*
X140658119Y-84492860D01*
X140658119Y-84492860D02*
X140277167Y-84492860D01*
X140277167Y-84492860D02*
X140181929Y-84445241D01*
X140181929Y-84445241D02*
X140134310Y-84350003D01*
X140134310Y-84350003D02*
X140134310Y-84159527D01*
X140134310Y-84159527D02*
X140181929Y-84064289D01*
X140181929Y-84064289D02*
X140277167Y-84016670D01*
X140277167Y-84016670D02*
X140372405Y-84016670D01*
X140372405Y-84016670D02*
X140467643Y-84492860D01*
X140800977Y-83445241D02*
X140753358Y-83540479D01*
X140753358Y-83540479D02*
X140658119Y-83588098D01*
X140658119Y-83588098D02*
X139800977Y-83588098D01*
X140753358Y-83111907D02*
X140800977Y-82969050D01*
X140800977Y-82969050D02*
X140800977Y-82730955D01*
X140800977Y-82730955D02*
X140753358Y-82635717D01*
X140753358Y-82635717D02*
X140705738Y-82588098D01*
X140705738Y-82588098D02*
X140610500Y-82540479D01*
X140610500Y-82540479D02*
X140515262Y-82540479D01*
X140515262Y-82540479D02*
X140420024Y-82588098D01*
X140420024Y-82588098D02*
X140372405Y-82635717D01*
X140372405Y-82635717D02*
X140324786Y-82730955D01*
X140324786Y-82730955D02*
X140277167Y-82921431D01*
X140277167Y-82921431D02*
X140229548Y-83016669D01*
X140229548Y-83016669D02*
X140181929Y-83064288D01*
X140181929Y-83064288D02*
X140086691Y-83111907D01*
X140086691Y-83111907D02*
X139991453Y-83111907D01*
X139991453Y-83111907D02*
X139896215Y-83064288D01*
X139896215Y-83064288D02*
X139848596Y-83016669D01*
X139848596Y-83016669D02*
X139800977Y-82921431D01*
X139800977Y-82921431D02*
X139800977Y-82683336D01*
X139800977Y-82683336D02*
X139848596Y-82540479D01*
X140800977Y-82111907D02*
X139800977Y-82111907D01*
X140800977Y-81683336D02*
X140277167Y-81683336D01*
X140277167Y-81683336D02*
X140181929Y-81730955D01*
X140181929Y-81730955D02*
X140134310Y-81826193D01*
X140134310Y-81826193D02*
X140134310Y-81969050D01*
X140134310Y-81969050D02*
X140181929Y-82064288D01*
X140181929Y-82064288D02*
X140229548Y-82111907D01*
X140800977Y-81207145D02*
X140134310Y-81207145D01*
X139800977Y-81207145D02*
X139848596Y-81254764D01*
X139848596Y-81254764D02*
X139896215Y-81207145D01*
X139896215Y-81207145D02*
X139848596Y-81159526D01*
X139848596Y-81159526D02*
X139800977Y-81207145D01*
X139800977Y-81207145D02*
X139896215Y-81207145D01*
X140134310Y-80873812D02*
X140134310Y-80492860D01*
X140800977Y-80730955D02*
X139943834Y-80730955D01*
X139943834Y-80730955D02*
X139848596Y-80683336D01*
X139848596Y-80683336D02*
X139800977Y-80588098D01*
X139800977Y-80588098D02*
X139800977Y-80492860D01*
X140134310Y-80302383D02*
X140134310Y-79921431D01*
X139800977Y-80159526D02*
X140658119Y-80159526D01*
X140658119Y-80159526D02*
X140753358Y-80111907D01*
X140753358Y-80111907D02*
X140800977Y-80016669D01*
X140800977Y-80016669D02*
X140800977Y-79921431D01*
X140753358Y-79207145D02*
X140800977Y-79302383D01*
X140800977Y-79302383D02*
X140800977Y-79492859D01*
X140800977Y-79492859D02*
X140753358Y-79588097D01*
X140753358Y-79588097D02*
X140658119Y-79635716D01*
X140658119Y-79635716D02*
X140277167Y-79635716D01*
X140277167Y-79635716D02*
X140181929Y-79588097D01*
X140181929Y-79588097D02*
X140134310Y-79492859D01*
X140134310Y-79492859D02*
X140134310Y-79302383D01*
X140134310Y-79302383D02*
X140181929Y-79207145D01*
X140181929Y-79207145D02*
X140277167Y-79159526D01*
X140277167Y-79159526D02*
X140372405Y-79159526D01*
X140372405Y-79159526D02*
X140467643Y-79635716D01*
X140800977Y-78730954D02*
X140134310Y-78730954D01*
X140324786Y-78730954D02*
X140229548Y-78683335D01*
X140229548Y-78683335D02*
X140181929Y-78635716D01*
X140181929Y-78635716D02*
X140134310Y-78540478D01*
X140134310Y-78540478D02*
X140134310Y-78445240D01*
D11*
X142454556Y-81170063D02*
X142454556Y-80370063D01*
X142454556Y-80751015D02*
X142911699Y-80751015D01*
X142911699Y-81170063D02*
X142911699Y-80370063D01*
X143178365Y-80370063D02*
X143445032Y-81170063D01*
X143445032Y-81170063D02*
X143711698Y-80370063D01*
X143940269Y-80446253D02*
X143978365Y-80408158D01*
X143978365Y-80408158D02*
X144054555Y-80370063D01*
X144054555Y-80370063D02*
X144245031Y-80370063D01*
X144245031Y-80370063D02*
X144321222Y-80408158D01*
X144321222Y-80408158D02*
X144359317Y-80446253D01*
X144359317Y-80446253D02*
X144397412Y-80522444D01*
X144397412Y-80522444D02*
X144397412Y-80598634D01*
X144397412Y-80598634D02*
X144359317Y-80712920D01*
X144359317Y-80712920D02*
X143902174Y-81170063D01*
X143902174Y-81170063D02*
X144397412Y-81170063D01*
X136961699Y-83710063D02*
X136580747Y-83710063D01*
X136580747Y-83710063D02*
X136580747Y-82910063D01*
X137114080Y-82910063D02*
X137380747Y-83710063D01*
X137380747Y-83710063D02*
X137647413Y-82910063D01*
X142454556Y-78630063D02*
X142454556Y-77830063D01*
X142454556Y-78211015D02*
X142911699Y-78211015D01*
X142911699Y-78630063D02*
X142911699Y-77830063D01*
X143178365Y-77830063D02*
X143445032Y-78630063D01*
X143445032Y-78630063D02*
X143711698Y-77830063D01*
X144397412Y-78630063D02*
X143940269Y-78630063D01*
X144168841Y-78630063D02*
X144168841Y-77830063D01*
X144168841Y-77830063D02*
X144092650Y-77944348D01*
X144092650Y-77944348D02*
X144016460Y-78020539D01*
X144016460Y-78020539D02*
X143940269Y-78058634D01*
X136834746Y-88790063D02*
X136453794Y-88790063D01*
X136453794Y-88790063D02*
X136453794Y-87990063D01*
X136987127Y-87990063D02*
X137253794Y-88790063D01*
X137253794Y-88790063D02*
X137520460Y-87990063D01*
X137710936Y-87990063D02*
X138206174Y-87990063D01*
X138206174Y-87990063D02*
X137939508Y-88294825D01*
X137939508Y-88294825D02*
X138053793Y-88294825D01*
X138053793Y-88294825D02*
X138129984Y-88332920D01*
X138129984Y-88332920D02*
X138168079Y-88371015D01*
X138168079Y-88371015D02*
X138206174Y-88447206D01*
X138206174Y-88447206D02*
X138206174Y-88637682D01*
X138206174Y-88637682D02*
X138168079Y-88713872D01*
X138168079Y-88713872D02*
X138129984Y-88751968D01*
X138129984Y-88751968D02*
X138053793Y-88790063D01*
X138053793Y-88790063D02*
X137825222Y-88790063D01*
X137825222Y-88790063D02*
X137749031Y-88751968D01*
X137749031Y-88751968D02*
X137710936Y-88713872D01*
X142454556Y-88790063D02*
X142454556Y-87990063D01*
X142454556Y-88371015D02*
X142911699Y-88371015D01*
X142911699Y-88790063D02*
X142911699Y-87990063D01*
X143178365Y-87990063D02*
X143445032Y-88790063D01*
X143445032Y-88790063D02*
X143711698Y-87990063D01*
X143902174Y-87990063D02*
X144397412Y-87990063D01*
X144397412Y-87990063D02*
X144130746Y-88294825D01*
X144130746Y-88294825D02*
X144245031Y-88294825D01*
X144245031Y-88294825D02*
X144321222Y-88332920D01*
X144321222Y-88332920D02*
X144359317Y-88371015D01*
X144359317Y-88371015D02*
X144397412Y-88447206D01*
X144397412Y-88447206D02*
X144397412Y-88637682D01*
X144397412Y-88637682D02*
X144359317Y-88713872D01*
X144359317Y-88713872D02*
X144321222Y-88751968D01*
X144321222Y-88751968D02*
X144245031Y-88790063D01*
X144245031Y-88790063D02*
X144016460Y-88790063D01*
X144016460Y-88790063D02*
X143940269Y-88751968D01*
X143940269Y-88751968D02*
X143902174Y-88713872D01*
X136955413Y-85488158D02*
X136879223Y-85450063D01*
X136879223Y-85450063D02*
X136764937Y-85450063D01*
X136764937Y-85450063D02*
X136650651Y-85488158D01*
X136650651Y-85488158D02*
X136574461Y-85564348D01*
X136574461Y-85564348D02*
X136536366Y-85640539D01*
X136536366Y-85640539D02*
X136498270Y-85792920D01*
X136498270Y-85792920D02*
X136498270Y-85907206D01*
X136498270Y-85907206D02*
X136536366Y-86059587D01*
X136536366Y-86059587D02*
X136574461Y-86135777D01*
X136574461Y-86135777D02*
X136650651Y-86211968D01*
X136650651Y-86211968D02*
X136764937Y-86250063D01*
X136764937Y-86250063D02*
X136841128Y-86250063D01*
X136841128Y-86250063D02*
X136955413Y-86211968D01*
X136955413Y-86211968D02*
X136993509Y-86173872D01*
X136993509Y-86173872D02*
X136993509Y-85907206D01*
X136993509Y-85907206D02*
X136841128Y-85907206D01*
X137336366Y-86250063D02*
X137336366Y-85450063D01*
X137336366Y-85450063D02*
X137793509Y-86250063D01*
X137793509Y-86250063D02*
X137793509Y-85450063D01*
X138174461Y-86250063D02*
X138174461Y-85450063D01*
X138174461Y-85450063D02*
X138364937Y-85450063D01*
X138364937Y-85450063D02*
X138479223Y-85488158D01*
X138479223Y-85488158D02*
X138555413Y-85564348D01*
X138555413Y-85564348D02*
X138593508Y-85640539D01*
X138593508Y-85640539D02*
X138631604Y-85792920D01*
X138631604Y-85792920D02*
X138631604Y-85907206D01*
X138631604Y-85907206D02*
X138593508Y-86059587D01*
X138593508Y-86059587D02*
X138555413Y-86135777D01*
X138555413Y-86135777D02*
X138479223Y-86211968D01*
X138479223Y-86211968D02*
X138364937Y-86250063D01*
X138364937Y-86250063D02*
X138174461Y-86250063D01*
X136834746Y-91330063D02*
X136453794Y-91330063D01*
X136453794Y-91330063D02*
X136453794Y-90530063D01*
X136987127Y-90530063D02*
X137253794Y-91330063D01*
X137253794Y-91330063D02*
X137520460Y-90530063D01*
X138129984Y-90796729D02*
X138129984Y-91330063D01*
X137939508Y-90491968D02*
X137749031Y-91063396D01*
X137749031Y-91063396D02*
X138244270Y-91063396D01*
X136834746Y-81170063D02*
X136453794Y-81170063D01*
X136453794Y-81170063D02*
X136453794Y-80370063D01*
X136987127Y-80370063D02*
X137253794Y-81170063D01*
X137253794Y-81170063D02*
X137520460Y-80370063D01*
X137749031Y-80446253D02*
X137787127Y-80408158D01*
X137787127Y-80408158D02*
X137863317Y-80370063D01*
X137863317Y-80370063D02*
X138053793Y-80370063D01*
X138053793Y-80370063D02*
X138129984Y-80408158D01*
X138129984Y-80408158D02*
X138168079Y-80446253D01*
X138168079Y-80446253D02*
X138206174Y-80522444D01*
X138206174Y-80522444D02*
X138206174Y-80598634D01*
X138206174Y-80598634D02*
X138168079Y-80712920D01*
X138168079Y-80712920D02*
X137710936Y-81170063D01*
X137710936Y-81170063D02*
X138206174Y-81170063D01*
X142835509Y-83710063D02*
X142835509Y-82910063D01*
X142835509Y-83291015D02*
X143292652Y-83291015D01*
X143292652Y-83710063D02*
X143292652Y-82910063D01*
X143559318Y-82910063D02*
X143825985Y-83710063D01*
X143825985Y-83710063D02*
X144092651Y-82910063D01*
X136834746Y-78630063D02*
X136453794Y-78630063D01*
X136453794Y-78630063D02*
X136453794Y-77830063D01*
X136987127Y-77830063D02*
X137253794Y-78630063D01*
X137253794Y-78630063D02*
X137520460Y-77830063D01*
X138206174Y-78630063D02*
X137749031Y-78630063D01*
X137977603Y-78630063D02*
X137977603Y-77830063D01*
X137977603Y-77830063D02*
X137901412Y-77944348D01*
X137901412Y-77944348D02*
X137825222Y-78020539D01*
X137825222Y-78020539D02*
X137749031Y-78058634D01*
X142543413Y-85488158D02*
X142467223Y-85450063D01*
X142467223Y-85450063D02*
X142352937Y-85450063D01*
X142352937Y-85450063D02*
X142238651Y-85488158D01*
X142238651Y-85488158D02*
X142162461Y-85564348D01*
X142162461Y-85564348D02*
X142124366Y-85640539D01*
X142124366Y-85640539D02*
X142086270Y-85792920D01*
X142086270Y-85792920D02*
X142086270Y-85907206D01*
X142086270Y-85907206D02*
X142124366Y-86059587D01*
X142124366Y-86059587D02*
X142162461Y-86135777D01*
X142162461Y-86135777D02*
X142238651Y-86211968D01*
X142238651Y-86211968D02*
X142352937Y-86250063D01*
X142352937Y-86250063D02*
X142429128Y-86250063D01*
X142429128Y-86250063D02*
X142543413Y-86211968D01*
X142543413Y-86211968D02*
X142581509Y-86173872D01*
X142581509Y-86173872D02*
X142581509Y-85907206D01*
X142581509Y-85907206D02*
X142429128Y-85907206D01*
X142924366Y-86250063D02*
X142924366Y-85450063D01*
X142924366Y-85450063D02*
X143381509Y-86250063D01*
X143381509Y-86250063D02*
X143381509Y-85450063D01*
X143762461Y-86250063D02*
X143762461Y-85450063D01*
X143762461Y-85450063D02*
X143952937Y-85450063D01*
X143952937Y-85450063D02*
X144067223Y-85488158D01*
X144067223Y-85488158D02*
X144143413Y-85564348D01*
X144143413Y-85564348D02*
X144181508Y-85640539D01*
X144181508Y-85640539D02*
X144219604Y-85792920D01*
X144219604Y-85792920D02*
X144219604Y-85907206D01*
X144219604Y-85907206D02*
X144181508Y-86059587D01*
X144181508Y-86059587D02*
X144143413Y-86135777D01*
X144143413Y-86135777D02*
X144067223Y-86211968D01*
X144067223Y-86211968D02*
X143952937Y-86250063D01*
X143952937Y-86250063D02*
X143762461Y-86250063D01*
X142454556Y-91330063D02*
X142454556Y-90530063D01*
X142454556Y-90911015D02*
X142911699Y-90911015D01*
X142911699Y-91330063D02*
X142911699Y-90530063D01*
X143178365Y-90530063D02*
X143445032Y-91330063D01*
X143445032Y-91330063D02*
X143711698Y-90530063D01*
X144321222Y-90796729D02*
X144321222Y-91330063D01*
X144130746Y-90491968D02*
X143940269Y-91063396D01*
X143940269Y-91063396D02*
X144435508Y-91063396D01*
D10*
X105845496Y-81277785D02*
X105845496Y-80801595D01*
X105845496Y-80801595D02*
X106845496Y-80801595D01*
X105893116Y-81992071D02*
X105845496Y-81896833D01*
X105845496Y-81896833D02*
X105845496Y-81706357D01*
X105845496Y-81706357D02*
X105893116Y-81611119D01*
X105893116Y-81611119D02*
X105988354Y-81563500D01*
X105988354Y-81563500D02*
X106369306Y-81563500D01*
X106369306Y-81563500D02*
X106464544Y-81611119D01*
X106464544Y-81611119D02*
X106512163Y-81706357D01*
X106512163Y-81706357D02*
X106512163Y-81896833D01*
X106512163Y-81896833D02*
X106464544Y-81992071D01*
X106464544Y-81992071D02*
X106369306Y-82039690D01*
X106369306Y-82039690D02*
X106274068Y-82039690D01*
X106274068Y-82039690D02*
X106178830Y-81563500D01*
X106512163Y-82373024D02*
X105845496Y-82611119D01*
X105845496Y-82611119D02*
X106512163Y-82849214D01*
X105893116Y-83611119D02*
X105845496Y-83515881D01*
X105845496Y-83515881D02*
X105845496Y-83325405D01*
X105845496Y-83325405D02*
X105893116Y-83230167D01*
X105893116Y-83230167D02*
X105988354Y-83182548D01*
X105988354Y-83182548D02*
X106369306Y-83182548D01*
X106369306Y-83182548D02*
X106464544Y-83230167D01*
X106464544Y-83230167D02*
X106512163Y-83325405D01*
X106512163Y-83325405D02*
X106512163Y-83515881D01*
X106512163Y-83515881D02*
X106464544Y-83611119D01*
X106464544Y-83611119D02*
X106369306Y-83658738D01*
X106369306Y-83658738D02*
X106274068Y-83658738D01*
X106274068Y-83658738D02*
X106178830Y-83182548D01*
X105845496Y-84230167D02*
X105893116Y-84134929D01*
X105893116Y-84134929D02*
X105988354Y-84087310D01*
X105988354Y-84087310D02*
X106845496Y-84087310D01*
X105893116Y-84563501D02*
X105845496Y-84706358D01*
X105845496Y-84706358D02*
X105845496Y-84944453D01*
X105845496Y-84944453D02*
X105893116Y-85039691D01*
X105893116Y-85039691D02*
X105940735Y-85087310D01*
X105940735Y-85087310D02*
X106035973Y-85134929D01*
X106035973Y-85134929D02*
X106131211Y-85134929D01*
X106131211Y-85134929D02*
X106226449Y-85087310D01*
X106226449Y-85087310D02*
X106274068Y-85039691D01*
X106274068Y-85039691D02*
X106321687Y-84944453D01*
X106321687Y-84944453D02*
X106369306Y-84753977D01*
X106369306Y-84753977D02*
X106416925Y-84658739D01*
X106416925Y-84658739D02*
X106464544Y-84611120D01*
X106464544Y-84611120D02*
X106559782Y-84563501D01*
X106559782Y-84563501D02*
X106655020Y-84563501D01*
X106655020Y-84563501D02*
X106750258Y-84611120D01*
X106750258Y-84611120D02*
X106797877Y-84658739D01*
X106797877Y-84658739D02*
X106845496Y-84753977D01*
X106845496Y-84753977D02*
X106845496Y-84992072D01*
X106845496Y-84992072D02*
X106797877Y-85134929D01*
X105845496Y-85563501D02*
X106845496Y-85563501D01*
X105845496Y-85992072D02*
X106369306Y-85992072D01*
X106369306Y-85992072D02*
X106464544Y-85944453D01*
X106464544Y-85944453D02*
X106512163Y-85849215D01*
X106512163Y-85849215D02*
X106512163Y-85706358D01*
X106512163Y-85706358D02*
X106464544Y-85611120D01*
X106464544Y-85611120D02*
X106416925Y-85563501D01*
X105845496Y-86468263D02*
X106512163Y-86468263D01*
X106845496Y-86468263D02*
X106797877Y-86420644D01*
X106797877Y-86420644D02*
X106750258Y-86468263D01*
X106750258Y-86468263D02*
X106797877Y-86515882D01*
X106797877Y-86515882D02*
X106845496Y-86468263D01*
X106845496Y-86468263D02*
X106750258Y-86468263D01*
X106512163Y-86801596D02*
X106512163Y-87182548D01*
X105845496Y-86944453D02*
X106702639Y-86944453D01*
X106702639Y-86944453D02*
X106797877Y-86992072D01*
X106797877Y-86992072D02*
X106845496Y-87087310D01*
X106845496Y-87087310D02*
X106845496Y-87182548D01*
X106512163Y-87373025D02*
X106512163Y-87753977D01*
X106845496Y-87515882D02*
X105988354Y-87515882D01*
X105988354Y-87515882D02*
X105893116Y-87563501D01*
X105893116Y-87563501D02*
X105845496Y-87658739D01*
X105845496Y-87658739D02*
X105845496Y-87753977D01*
X105893116Y-88468263D02*
X105845496Y-88373025D01*
X105845496Y-88373025D02*
X105845496Y-88182549D01*
X105845496Y-88182549D02*
X105893116Y-88087311D01*
X105893116Y-88087311D02*
X105988354Y-88039692D01*
X105988354Y-88039692D02*
X106369306Y-88039692D01*
X106369306Y-88039692D02*
X106464544Y-88087311D01*
X106464544Y-88087311D02*
X106512163Y-88182549D01*
X106512163Y-88182549D02*
X106512163Y-88373025D01*
X106512163Y-88373025D02*
X106464544Y-88468263D01*
X106464544Y-88468263D02*
X106369306Y-88515882D01*
X106369306Y-88515882D02*
X106274068Y-88515882D01*
X106274068Y-88515882D02*
X106178830Y-88039692D01*
X105845496Y-88944454D02*
X106512163Y-88944454D01*
X106321687Y-88944454D02*
X106416925Y-88992073D01*
X106416925Y-88992073D02*
X106464544Y-89039692D01*
X106464544Y-89039692D02*
X106512163Y-89134930D01*
X106512163Y-89134930D02*
X106512163Y-89230168D01*
D11*
X104169452Y-80436469D02*
X104169452Y-81236469D01*
X104169452Y-80855517D02*
X103712309Y-80855517D01*
X103712309Y-80436469D02*
X103712309Y-81236469D01*
X103445643Y-81236469D02*
X103178976Y-80436469D01*
X103178976Y-80436469D02*
X102912310Y-81236469D01*
X102721834Y-81236469D02*
X102226596Y-81236469D01*
X102226596Y-81236469D02*
X102493262Y-80931707D01*
X102493262Y-80931707D02*
X102378977Y-80931707D01*
X102378977Y-80931707D02*
X102302786Y-80893612D01*
X102302786Y-80893612D02*
X102264691Y-80855517D01*
X102264691Y-80855517D02*
X102226596Y-80779326D01*
X102226596Y-80779326D02*
X102226596Y-80588850D01*
X102226596Y-80588850D02*
X102264691Y-80512660D01*
X102264691Y-80512660D02*
X102302786Y-80474565D01*
X102302786Y-80474565D02*
X102378977Y-80436469D01*
X102378977Y-80436469D02*
X102607548Y-80436469D01*
X102607548Y-80436469D02*
X102683739Y-80474565D01*
X102683739Y-80474565D02*
X102721834Y-80512660D01*
X109662309Y-85516469D02*
X110043261Y-85516469D01*
X110043261Y-85516469D02*
X110043261Y-86316469D01*
X109509928Y-86316469D02*
X109243261Y-85516469D01*
X109243261Y-85516469D02*
X108976595Y-86316469D01*
X103788499Y-85516469D02*
X103788499Y-86316469D01*
X103788499Y-85935517D02*
X103331356Y-85935517D01*
X103331356Y-85516469D02*
X103331356Y-86316469D01*
X103064690Y-86316469D02*
X102798023Y-85516469D01*
X102798023Y-85516469D02*
X102531357Y-86316469D01*
X109668595Y-83738374D02*
X109744785Y-83776469D01*
X109744785Y-83776469D02*
X109859071Y-83776469D01*
X109859071Y-83776469D02*
X109973357Y-83738374D01*
X109973357Y-83738374D02*
X110049547Y-83662184D01*
X110049547Y-83662184D02*
X110087642Y-83585993D01*
X110087642Y-83585993D02*
X110125738Y-83433612D01*
X110125738Y-83433612D02*
X110125738Y-83319326D01*
X110125738Y-83319326D02*
X110087642Y-83166945D01*
X110087642Y-83166945D02*
X110049547Y-83090755D01*
X110049547Y-83090755D02*
X109973357Y-83014565D01*
X109973357Y-83014565D02*
X109859071Y-82976469D01*
X109859071Y-82976469D02*
X109782880Y-82976469D01*
X109782880Y-82976469D02*
X109668595Y-83014565D01*
X109668595Y-83014565D02*
X109630499Y-83052660D01*
X109630499Y-83052660D02*
X109630499Y-83319326D01*
X109630499Y-83319326D02*
X109782880Y-83319326D01*
X109287642Y-82976469D02*
X109287642Y-83776469D01*
X109287642Y-83776469D02*
X108830499Y-82976469D01*
X108830499Y-82976469D02*
X108830499Y-83776469D01*
X108449547Y-82976469D02*
X108449547Y-83776469D01*
X108449547Y-83776469D02*
X108259071Y-83776469D01*
X108259071Y-83776469D02*
X108144785Y-83738374D01*
X108144785Y-83738374D02*
X108068595Y-83662184D01*
X108068595Y-83662184D02*
X108030500Y-83585993D01*
X108030500Y-83585993D02*
X107992404Y-83433612D01*
X107992404Y-83433612D02*
X107992404Y-83319326D01*
X107992404Y-83319326D02*
X108030500Y-83166945D01*
X108030500Y-83166945D02*
X108068595Y-83090755D01*
X108068595Y-83090755D02*
X108144785Y-83014565D01*
X108144785Y-83014565D02*
X108259071Y-82976469D01*
X108259071Y-82976469D02*
X108449547Y-82976469D01*
X109789262Y-88056469D02*
X110170214Y-88056469D01*
X110170214Y-88056469D02*
X110170214Y-88856469D01*
X109636881Y-88856469D02*
X109370214Y-88056469D01*
X109370214Y-88056469D02*
X109103548Y-88856469D01*
X108874977Y-88780279D02*
X108836881Y-88818374D01*
X108836881Y-88818374D02*
X108760691Y-88856469D01*
X108760691Y-88856469D02*
X108570215Y-88856469D01*
X108570215Y-88856469D02*
X108494024Y-88818374D01*
X108494024Y-88818374D02*
X108455929Y-88780279D01*
X108455929Y-88780279D02*
X108417834Y-88704088D01*
X108417834Y-88704088D02*
X108417834Y-88627898D01*
X108417834Y-88627898D02*
X108455929Y-88513612D01*
X108455929Y-88513612D02*
X108913072Y-88056469D01*
X108913072Y-88056469D02*
X108417834Y-88056469D01*
X109789262Y-90596469D02*
X110170214Y-90596469D01*
X110170214Y-90596469D02*
X110170214Y-91396469D01*
X109636881Y-91396469D02*
X109370214Y-90596469D01*
X109370214Y-90596469D02*
X109103548Y-91396469D01*
X108417834Y-90596469D02*
X108874977Y-90596469D01*
X108646405Y-90596469D02*
X108646405Y-91396469D01*
X108646405Y-91396469D02*
X108722596Y-91282184D01*
X108722596Y-91282184D02*
X108798786Y-91205993D01*
X108798786Y-91205993D02*
X108874977Y-91167898D01*
X104169452Y-90596469D02*
X104169452Y-91396469D01*
X104169452Y-91015517D02*
X103712309Y-91015517D01*
X103712309Y-90596469D02*
X103712309Y-91396469D01*
X103445643Y-91396469D02*
X103178976Y-90596469D01*
X103178976Y-90596469D02*
X102912310Y-91396469D01*
X102226596Y-90596469D02*
X102683739Y-90596469D01*
X102455167Y-90596469D02*
X102455167Y-91396469D01*
X102455167Y-91396469D02*
X102531358Y-91282184D01*
X102531358Y-91282184D02*
X102607548Y-91205993D01*
X102607548Y-91205993D02*
X102683739Y-91167898D01*
X104080595Y-83738374D02*
X104156785Y-83776469D01*
X104156785Y-83776469D02*
X104271071Y-83776469D01*
X104271071Y-83776469D02*
X104385357Y-83738374D01*
X104385357Y-83738374D02*
X104461547Y-83662184D01*
X104461547Y-83662184D02*
X104499642Y-83585993D01*
X104499642Y-83585993D02*
X104537738Y-83433612D01*
X104537738Y-83433612D02*
X104537738Y-83319326D01*
X104537738Y-83319326D02*
X104499642Y-83166945D01*
X104499642Y-83166945D02*
X104461547Y-83090755D01*
X104461547Y-83090755D02*
X104385357Y-83014565D01*
X104385357Y-83014565D02*
X104271071Y-82976469D01*
X104271071Y-82976469D02*
X104194880Y-82976469D01*
X104194880Y-82976469D02*
X104080595Y-83014565D01*
X104080595Y-83014565D02*
X104042499Y-83052660D01*
X104042499Y-83052660D02*
X104042499Y-83319326D01*
X104042499Y-83319326D02*
X104194880Y-83319326D01*
X103699642Y-82976469D02*
X103699642Y-83776469D01*
X103699642Y-83776469D02*
X103242499Y-82976469D01*
X103242499Y-82976469D02*
X103242499Y-83776469D01*
X102861547Y-82976469D02*
X102861547Y-83776469D01*
X102861547Y-83776469D02*
X102671071Y-83776469D01*
X102671071Y-83776469D02*
X102556785Y-83738374D01*
X102556785Y-83738374D02*
X102480595Y-83662184D01*
X102480595Y-83662184D02*
X102442500Y-83585993D01*
X102442500Y-83585993D02*
X102404404Y-83433612D01*
X102404404Y-83433612D02*
X102404404Y-83319326D01*
X102404404Y-83319326D02*
X102442500Y-83166945D01*
X102442500Y-83166945D02*
X102480595Y-83090755D01*
X102480595Y-83090755D02*
X102556785Y-83014565D01*
X102556785Y-83014565D02*
X102671071Y-82976469D01*
X102671071Y-82976469D02*
X102861547Y-82976469D01*
X104169452Y-88056469D02*
X104169452Y-88856469D01*
X104169452Y-88475517D02*
X103712309Y-88475517D01*
X103712309Y-88056469D02*
X103712309Y-88856469D01*
X103445643Y-88856469D02*
X103178976Y-88056469D01*
X103178976Y-88056469D02*
X102912310Y-88856469D01*
X102683739Y-88780279D02*
X102645643Y-88818374D01*
X102645643Y-88818374D02*
X102569453Y-88856469D01*
X102569453Y-88856469D02*
X102378977Y-88856469D01*
X102378977Y-88856469D02*
X102302786Y-88818374D01*
X102302786Y-88818374D02*
X102264691Y-88780279D01*
X102264691Y-88780279D02*
X102226596Y-88704088D01*
X102226596Y-88704088D02*
X102226596Y-88627898D01*
X102226596Y-88627898D02*
X102264691Y-88513612D01*
X102264691Y-88513612D02*
X102721834Y-88056469D01*
X102721834Y-88056469D02*
X102226596Y-88056469D01*
X109789262Y-77896469D02*
X110170214Y-77896469D01*
X110170214Y-77896469D02*
X110170214Y-78696469D01*
X109636881Y-78696469D02*
X109370214Y-77896469D01*
X109370214Y-77896469D02*
X109103548Y-78696469D01*
X108494024Y-78429803D02*
X108494024Y-77896469D01*
X108684500Y-78734565D02*
X108874977Y-78163136D01*
X108874977Y-78163136D02*
X108379738Y-78163136D01*
X104169452Y-77896469D02*
X104169452Y-78696469D01*
X104169452Y-78315517D02*
X103712309Y-78315517D01*
X103712309Y-77896469D02*
X103712309Y-78696469D01*
X103445643Y-78696469D02*
X103178976Y-77896469D01*
X103178976Y-77896469D02*
X102912310Y-78696469D01*
X102302786Y-78429803D02*
X102302786Y-77896469D01*
X102493262Y-78734565D02*
X102683739Y-78163136D01*
X102683739Y-78163136D02*
X102188500Y-78163136D01*
X109789262Y-80436469D02*
X110170214Y-80436469D01*
X110170214Y-80436469D02*
X110170214Y-81236469D01*
X109636881Y-81236469D02*
X109370214Y-80436469D01*
X109370214Y-80436469D02*
X109103548Y-81236469D01*
X108913072Y-81236469D02*
X108417834Y-81236469D01*
X108417834Y-81236469D02*
X108684500Y-80931707D01*
X108684500Y-80931707D02*
X108570215Y-80931707D01*
X108570215Y-80931707D02*
X108494024Y-80893612D01*
X108494024Y-80893612D02*
X108455929Y-80855517D01*
X108455929Y-80855517D02*
X108417834Y-80779326D01*
X108417834Y-80779326D02*
X108417834Y-80588850D01*
X108417834Y-80588850D02*
X108455929Y-80512660D01*
X108455929Y-80512660D02*
X108494024Y-80474565D01*
X108494024Y-80474565D02*
X108570215Y-80436469D01*
X108570215Y-80436469D02*
X108798786Y-80436469D01*
X108798786Y-80436469D02*
X108874977Y-80474565D01*
X108874977Y-80474565D02*
X108913072Y-80512660D01*
D10*
X164403453Y-98328857D02*
X165117738Y-98328857D01*
X165117738Y-98328857D02*
X165260595Y-98376476D01*
X165260595Y-98376476D02*
X165355834Y-98471714D01*
X165355834Y-98471714D02*
X165403453Y-98614571D01*
X165403453Y-98614571D02*
X165403453Y-98709809D01*
X164498691Y-97900285D02*
X164451072Y-97852666D01*
X164451072Y-97852666D02*
X164403453Y-97757428D01*
X164403453Y-97757428D02*
X164403453Y-97519333D01*
X164403453Y-97519333D02*
X164451072Y-97424095D01*
X164451072Y-97424095D02*
X164498691Y-97376476D01*
X164498691Y-97376476D02*
X164593929Y-97328857D01*
X164593929Y-97328857D02*
X164689167Y-97328857D01*
X164689167Y-97328857D02*
X164832024Y-97376476D01*
X164832024Y-97376476D02*
X165403453Y-97947904D01*
X165403453Y-97947904D02*
X165403453Y-97328857D01*
X148791492Y-95670687D02*
X148934349Y-95718306D01*
X148934349Y-95718306D02*
X149172444Y-95718306D01*
X149172444Y-95718306D02*
X149267682Y-95670687D01*
X149267682Y-95670687D02*
X149315301Y-95623067D01*
X149315301Y-95623067D02*
X149362920Y-95527829D01*
X149362920Y-95527829D02*
X149362920Y-95432591D01*
X149362920Y-95432591D02*
X149315301Y-95337353D01*
X149315301Y-95337353D02*
X149267682Y-95289734D01*
X149267682Y-95289734D02*
X149172444Y-95242115D01*
X149172444Y-95242115D02*
X148981968Y-95194496D01*
X148981968Y-95194496D02*
X148886730Y-95146877D01*
X148886730Y-95146877D02*
X148839111Y-95099258D01*
X148839111Y-95099258D02*
X148791492Y-95004020D01*
X148791492Y-95004020D02*
X148791492Y-94908782D01*
X148791492Y-94908782D02*
X148839111Y-94813544D01*
X148839111Y-94813544D02*
X148886730Y-94765925D01*
X148886730Y-94765925D02*
X148981968Y-94718306D01*
X148981968Y-94718306D02*
X149220063Y-94718306D01*
X149220063Y-94718306D02*
X149362920Y-94765925D01*
X149696254Y-94718306D02*
X149934349Y-95718306D01*
X149934349Y-95718306D02*
X150124825Y-95004020D01*
X150124825Y-95004020D02*
X150315301Y-95718306D01*
X150315301Y-95718306D02*
X150553397Y-94718306D01*
X150839111Y-94718306D02*
X151458158Y-94718306D01*
X151458158Y-94718306D02*
X151124825Y-95099258D01*
X151124825Y-95099258D02*
X151267682Y-95099258D01*
X151267682Y-95099258D02*
X151362920Y-95146877D01*
X151362920Y-95146877D02*
X151410539Y-95194496D01*
X151410539Y-95194496D02*
X151458158Y-95289734D01*
X151458158Y-95289734D02*
X151458158Y-95527829D01*
X151458158Y-95527829D02*
X151410539Y-95623067D01*
X151410539Y-95623067D02*
X151362920Y-95670687D01*
X151362920Y-95670687D02*
X151267682Y-95718306D01*
X151267682Y-95718306D02*
X150981968Y-95718306D01*
X150981968Y-95718306D02*
X150886730Y-95670687D01*
X150886730Y-95670687D02*
X150839111Y-95623067D01*
X95570335Y-96781792D02*
X95237002Y-96305601D01*
X94998907Y-96781792D02*
X94998907Y-95781792D01*
X94998907Y-95781792D02*
X95379859Y-95781792D01*
X95379859Y-95781792D02*
X95475097Y-95829411D01*
X95475097Y-95829411D02*
X95522716Y-95877030D01*
X95522716Y-95877030D02*
X95570335Y-95972268D01*
X95570335Y-95972268D02*
X95570335Y-96115125D01*
X95570335Y-96115125D02*
X95522716Y-96210363D01*
X95522716Y-96210363D02*
X95475097Y-96257982D01*
X95475097Y-96257982D02*
X95379859Y-96305601D01*
X95379859Y-96305601D02*
X94998907Y-96305601D01*
X96475097Y-95781792D02*
X95998907Y-95781792D01*
X95998907Y-95781792D02*
X95951288Y-96257982D01*
X95951288Y-96257982D02*
X95998907Y-96210363D01*
X95998907Y-96210363D02*
X96094145Y-96162744D01*
X96094145Y-96162744D02*
X96332240Y-96162744D01*
X96332240Y-96162744D02*
X96427478Y-96210363D01*
X96427478Y-96210363D02*
X96475097Y-96257982D01*
X96475097Y-96257982D02*
X96522716Y-96353220D01*
X96522716Y-96353220D02*
X96522716Y-96591315D01*
X96522716Y-96591315D02*
X96475097Y-96686553D01*
X96475097Y-96686553D02*
X96427478Y-96734173D01*
X96427478Y-96734173D02*
X96332240Y-96781792D01*
X96332240Y-96781792D02*
X96094145Y-96781792D01*
X96094145Y-96781792D02*
X95998907Y-96734173D01*
X95998907Y-96734173D02*
X95951288Y-96686553D01*
D12*
X122471725Y-87443509D02*
X129011725Y-87443509D01*
X122471725Y-87773509D02*
X122471725Y-87443509D01*
X122471725Y-89853509D02*
X122471725Y-90183509D01*
X122471725Y-90183509D02*
X129011725Y-90183509D01*
X129011725Y-87443509D02*
X129011725Y-87773509D01*
X129011725Y-90183509D02*
X129011725Y-89853509D01*
X166438163Y-70313844D02*
X172978163Y-70313844D01*
X166438163Y-70643844D02*
X166438163Y-70313844D01*
X166438163Y-72723844D02*
X166438163Y-73053844D01*
X166438163Y-73053844D02*
X172978163Y-73053844D01*
X172978163Y-70313844D02*
X172978163Y-70643844D01*
X172978163Y-73053844D02*
X172978163Y-72723844D01*
X148749999Y-77187420D02*
X155289999Y-77187420D01*
X148749999Y-77517420D02*
X148749999Y-77187420D01*
X148749999Y-79597420D02*
X148749999Y-79927420D01*
X148749999Y-79927420D02*
X155289999Y-79927420D01*
X155289999Y-77187420D02*
X155289999Y-77517420D01*
X155289999Y-79927420D02*
X155289999Y-79597420D01*
X175352871Y-71622633D02*
X176682871Y-71622633D01*
X175352871Y-72952633D02*
X175352871Y-71622633D01*
X175352871Y-74222633D02*
X175352871Y-74282633D01*
X175352871Y-74222633D02*
X178012871Y-74222633D01*
X175352871Y-74282633D02*
X178012871Y-74282633D01*
X178012871Y-74222633D02*
X178012871Y-74282633D01*
X130913916Y-79504987D02*
X113013916Y-79504987D01*
X113013916Y-79504987D02*
X113013916Y-84804987D01*
X130913916Y-81154987D02*
X130913916Y-79504987D01*
X130913916Y-84804987D02*
X130913916Y-83154987D01*
X113013916Y-84804987D02*
X130913916Y-84804987D01*
X130913916Y-81154987D02*
G75*
G03*
X130913916Y-83154987I0J-1000000D01*
G01*
X147588628Y-91532200D02*
X157878628Y-91532200D01*
X157878628Y-91532200D02*
X157878628Y-88872200D01*
X147588628Y-88872200D02*
X147588628Y-91532200D01*
X157878628Y-88872200D02*
X147588628Y-88872200D01*
X179721021Y-72152780D02*
X179721021Y-72308780D01*
X179721021Y-74468780D02*
X179721021Y-74624780D01*
X182953355Y-72310172D02*
G75*
G03*
X179721022Y-72153265I-1672334J-1078608D01*
G01*
X182322150Y-72308944D02*
G75*
G03*
X180240061Y-72308781I-1041129J-1079836D01*
G01*
X180240061Y-74468779D02*
G75*
G03*
X182322150Y-74468616I1040960J1079999D01*
G01*
X179721022Y-74624295D02*
G75*
G03*
X182953355Y-74467388I1559999J1235515D01*
G01*
X134635790Y-99643487D02*
X134635790Y-95743487D01*
X134635790Y-99643487D02*
X126915790Y-99643487D01*
X134635790Y-93143487D02*
X134635790Y-92633487D01*
X134635790Y-92633487D02*
X134115790Y-92633487D01*
X134115790Y-95973487D02*
X134115790Y-95743487D01*
X134115790Y-95973487D02*
X133575790Y-95973487D01*
X134115790Y-93143487D02*
X134115790Y-92633487D01*
X132475790Y-95973487D02*
X129075790Y-95973487D01*
X127975790Y-95973487D02*
X127435790Y-95973487D01*
X127435790Y-95973487D02*
X127435790Y-95743487D01*
X127435790Y-93143487D02*
X127435790Y-92633487D01*
X127435790Y-92633487D02*
X126915790Y-92633487D01*
X126915790Y-99643487D02*
X126915790Y-95743487D01*
X126915790Y-93143487D02*
X126915790Y-92633487D01*
D10*
X80626789Y-94677170D02*
X99626789Y-94677170D01*
X99626789Y-94677170D02*
X99626789Y-74677170D01*
X82626789Y-94177170D02*
X82626789Y-91177170D01*
X82626789Y-85877170D02*
X82626789Y-83477170D01*
X82626789Y-78177170D02*
X82626789Y-75177170D01*
X80626789Y-74677170D02*
X80626789Y-94677170D01*
X99626789Y-74677170D02*
X80626789Y-74677170D01*
D12*
X124913633Y-99643487D02*
X124913633Y-95743487D01*
X124913633Y-99643487D02*
X117193633Y-99643487D01*
X124913633Y-93143487D02*
X124913633Y-92633487D01*
X124913633Y-92633487D02*
X124393633Y-92633487D01*
X124393633Y-95973487D02*
X124393633Y-95743487D01*
X124393633Y-95973487D02*
X123853633Y-95973487D01*
X124393633Y-93143487D02*
X124393633Y-92633487D01*
X122753633Y-95973487D02*
X119353633Y-95973487D01*
X118253633Y-95973487D02*
X117713633Y-95973487D01*
X117713633Y-95973487D02*
X117713633Y-95743487D01*
X117713633Y-93143487D02*
X117713633Y-92633487D01*
X117713633Y-92633487D02*
X117193633Y-92633487D01*
X117193633Y-99643487D02*
X117193633Y-95743487D01*
X117193633Y-93143487D02*
X117193633Y-92633487D01*
X115207456Y-99643487D02*
X115207456Y-95743487D01*
X115207456Y-99643487D02*
X107487456Y-99643487D01*
X115207456Y-93143487D02*
X115207456Y-92633487D01*
X115207456Y-92633487D02*
X114687456Y-92633487D01*
X114687456Y-95973487D02*
X114687456Y-95743487D01*
X114687456Y-95973487D02*
X114147456Y-95973487D01*
X114687456Y-93143487D02*
X114687456Y-92633487D01*
X113047456Y-95973487D02*
X109647456Y-95973487D01*
X108547456Y-95973487D02*
X108007456Y-95973487D01*
X108007456Y-95973487D02*
X108007456Y-95743487D01*
X108007456Y-93143487D02*
X108007456Y-92633487D01*
X108007456Y-92633487D02*
X107487456Y-92633487D01*
X107487456Y-99643487D02*
X107487456Y-95743487D01*
X107487456Y-93143487D02*
X107487456Y-92633487D01*
D10*
X184403593Y-75807085D02*
X165403593Y-75807085D01*
X165403593Y-75807085D02*
X165403593Y-95807085D01*
X182403593Y-76307085D02*
X182403593Y-79307085D01*
X182403593Y-84607085D02*
X182403593Y-87007085D01*
X182403593Y-92307085D02*
X182403593Y-95307085D01*
X184403593Y-95807085D02*
X184403593Y-75807085D01*
X165403593Y-95807085D02*
X184403593Y-95807085D01*
D12*
X144310308Y-99643487D02*
X144310308Y-95743487D01*
X144310308Y-99643487D02*
X136590308Y-99643487D01*
X144310308Y-93143487D02*
X144310308Y-92633487D01*
X144310308Y-92633487D02*
X143790308Y-92633487D01*
X143790308Y-95973487D02*
X143790308Y-95743487D01*
X143790308Y-95973487D02*
X143250308Y-95973487D01*
X143790308Y-93143487D02*
X143790308Y-92633487D01*
X142150308Y-95973487D02*
X138750308Y-95973487D01*
X137650308Y-95973487D02*
X137110308Y-95973487D01*
X137110308Y-95973487D02*
X137110308Y-95743487D01*
X137110308Y-93143487D02*
X137110308Y-92633487D01*
X137110308Y-92633487D02*
X136590308Y-92633487D01*
X136590308Y-99643487D02*
X136590308Y-95743487D01*
X136590308Y-93143487D02*
X136590308Y-92633487D01*
X118771414Y-89788982D02*
X118771414Y-89773982D01*
X118771414Y-89788982D02*
X114231414Y-89788982D01*
X118771414Y-87663982D02*
X118771414Y-87648982D01*
X118771414Y-87648982D02*
X114231414Y-87648982D01*
X114231414Y-89788982D02*
X114231414Y-89773982D01*
X114231414Y-87663982D02*
X114231414Y-87648982D01*
D10*
X134262937Y-77249688D02*
X146454937Y-77249688D01*
X134262937Y-91981688D02*
X134262937Y-77249688D01*
X146454937Y-77249688D02*
X146454937Y-91981688D01*
X146454937Y-91981688D02*
X134262937Y-91981688D01*
X112361072Y-91976845D02*
X100169072Y-91976845D01*
X112361072Y-77244845D02*
X112361072Y-91976845D01*
X100169072Y-91976845D02*
X100169072Y-77244845D01*
X100169072Y-77244845D02*
X112361072Y-77244845D01*
D12*
X165948634Y-99325524D02*
X165948634Y-97995524D01*
X167278634Y-99325524D02*
X165948634Y-99325524D01*
X168548634Y-99325524D02*
X181308634Y-99325524D01*
X168548634Y-99325524D02*
X168548634Y-96665524D01*
X181308634Y-99325524D02*
X181308634Y-96665524D01*
X168548634Y-96665524D02*
X181308634Y-96665524D01*
X148749999Y-80354046D02*
X155289999Y-80354046D01*
X148749999Y-80684046D02*
X148749999Y-80354046D01*
X148749999Y-82764046D02*
X148749999Y-83094046D01*
X148749999Y-83094046D02*
X155289999Y-83094046D01*
X155289999Y-80354046D02*
X155289999Y-80684046D01*
X155289999Y-83094046D02*
X155289999Y-82764046D01*
X155384525Y-86213410D02*
X148844525Y-86213410D01*
X155384525Y-85883410D02*
X155384525Y-86213410D01*
X155384525Y-83803410D02*
X155384525Y-83473410D01*
X155384525Y-83473410D02*
X148844525Y-83473410D01*
X148844525Y-86213410D02*
X148844525Y-85883410D01*
X148844525Y-83473410D02*
X148844525Y-83803410D01*
X153984825Y-99643487D02*
X153984825Y-95743487D01*
X153984825Y-99643487D02*
X146264825Y-99643487D01*
X153984825Y-93143487D02*
X153984825Y-92633487D01*
X153984825Y-92633487D02*
X153464825Y-92633487D01*
X153464825Y-95973487D02*
X153464825Y-95743487D01*
X153464825Y-95973487D02*
X152924825Y-95973487D01*
X153464825Y-93143487D02*
X153464825Y-92633487D01*
X151824825Y-95973487D02*
X148424825Y-95973487D01*
X147324825Y-95973487D02*
X146784825Y-95973487D01*
X146784825Y-95973487D02*
X146784825Y-95743487D01*
X146784825Y-93143487D02*
X146784825Y-92633487D01*
X146784825Y-92633487D02*
X146264825Y-92633487D01*
X146264825Y-99643487D02*
X146264825Y-95743487D01*
X146264825Y-93143487D02*
X146264825Y-92633487D01*
X93081139Y-98549074D02*
X86541139Y-98549074D01*
X93081139Y-98219074D02*
X93081139Y-98549074D01*
X93081139Y-96139074D02*
X93081139Y-95809074D01*
X93081139Y-95809074D02*
X86541139Y-95809074D01*
X86541139Y-98549074D02*
X86541139Y-98219074D01*
X86541139Y-95809074D02*
X86541139Y-96139074D01*
X162033245Y-78307420D02*
X160533245Y-78307420D01*
X158033245Y-79557420D02*
X158033245Y-84057420D01*
X164533245Y-84057420D02*
X164533245Y-79557420D01*
X160533245Y-85307420D02*
X162033245Y-85307420D01*
M02*
